<?xml version="1.0" encoding="utf-8"?>
<svg version="1.1" xmlns="http://www.w3.org/2000/svg" xmlns:xlink="http://www.w3.org/1999/xlink" x="0px" y="0px"
	 viewBox="0 0 600 180" width="600" height="180" style="enable-background:new 0 0 600 180;" xml:space="preserve" preserveAspectRatio="xMidYMid meet">
<style type="text/css">
	.st0{fill-rule:evenodd;clip-rule:evenodd;fill:#EDF0F1;}
	.st1{fill-rule:evenodd;clip-rule:evenodd;fill:#EEF0F1;}
	.st2{fill:#FFFFFF;}
	.st3{fill:#F8E6CD;}
	.st4{fill:none;stroke:#CBCFD3;stroke-miterlimit:10;}
	.st5{fill:#C92027;}
	.st6{fill:#CCD0D3;}
	.st7{fill:#C92128;}
	.st8{fill:#005292;}
	.st9{fill:#CBCFD3;}
	.st10{fill:#971C1F;}
	.st11{fill:#EFF0F1;}
	.st12{fill-rule:evenodd;clip-rule:evenodd;fill:#005292;}
</style>
<g id="Layer_2">
	<path class="st0" d="M100,180c49.8,0,49.3-31,100-31c50.7,0,51.5,18.3,100,18.3c48.5,0,50.5-12.9,100-12.9
		c49.5,0,49.5,25.6,100,25.6H100z"/>
	<g>
		<circle class="st1" cx="200" cy="149" r="6"/>
		<path class="st2" d="M200,145c2.2,0,4,1.8,4,4s-1.8,4-4,4s-4-1.8-4-4S197.8,145,200,145 M200,141c-4.4,0-8,3.6-8,8s3.6,8,8,8
			s8-3.6,8-8S204.4,141,200,141L200,141z"/>
	</g>
	<g>
		<circle class="st1" cx="400" cy="154.4" r="6"/>
		<path class="st2" d="M400,150.4c2.2,0,4,1.8,4,4c0,2.2-1.8,4-4,4s-4-1.8-4-4C396,152.2,397.8,150.4,400,150.4 M400,146.4
			c-4.4,0-8,3.6-8,8s3.6,8,8,8s8-3.6,8-8S404.4,146.4,400,146.4L400,146.4z"/>
	</g>
</g>
<g id="Layer_3">
	<path class="st3" d="M352.8,137.5c0,0,17.2-1.3,33.6,1.5c5.4-32,7.5-76,7.5-76S382.6,104,352.8,137.5z"/>
	<path class="st3" d="M385.5,142.5c11.6-30.4,8.3-80,8.3-80c17.5,24.9,19.9,82.6,19.9,82.6S398.8,145.1,385.5,142.5z"/>
	<path class="st3" d="M417.7,145.9c0,0,3.8-12.4,1.9-36.4c14.9,22.7,16,39.6,16,39.6S428.1,148.7,417.7,145.9z"/>
	<path class="st4" d="M383.3,150.2c0,0,10.6-28.2,10.6-95.3"/>
	<path class="st4" d="M417.1,153.5c0,0,2.5-28.7,2.5-50.9"/>
	<path class="st5" d="M341.4,141.3c0,0,38.5,12.6,93.1,12.6c0,0,0.1,3-2.1,3s-4.5,0-4.5,0s-1.6,0-2.4,1.6c-0.8,1.7-7.8,15-7.8,15
		l-45.9-3.4L359,151.7c0,0-1.6-1.8-2.9-2.3c-1.3-0.5-13.8-4.8-13.8-4.8S341.2,144,341.4,141.3z"/>
	<g>
		<path class="st6" d="M434.5,154.4c-54.2,0-93.2-12.6-93.6-12.7c-0.8-0.3-1.2-1.1-1-1.9s1.1-1.2,1.9-1c0.4,0.1,39,12.6,92.7,12.6
			c0.8,0,1.5,0.7,1.5,1.5S435.4,154.4,434.5,154.4z"/>
	</g>
	<g>
		<path class="st2" d="M434.5,153.4c-54.2,0-93.2-12.6-93.6-12.7c-0.8-0.3-1.2-1.1-1-1.9s1.1-1.2,1.9-1c0.4,0.1,39,12.6,92.7,12.6
			c0.8,0,1.5,0.7,1.5,1.5S435.4,153.4,434.5,153.4z"/>
	</g>
	<path class="st7" d="M419.1,102c0,0,1.2-2,4-2s6.1,4,8,4c3.2,0,6-1,6-1s-2.7,4-6,4c-2.6,0-4.8-2-8-2c-2,0-4,3-4,3V102z"/>
	<path class="st8" d="M393.4,55c0,0,1.2-2,4-2s6.1,4,8,4c3.2,0,6-1,6-1s-2.7,4-6,4c-2.6,0-4.8-2-8-2c-2,0-4,3-4,3V55z"/>
	<g>
		<circle class="st9" cx="388.8" cy="160.6" r="3"/>
		<path class="st2" d="M388.8,158.6c1.1,0,2,0.9,2,2s-0.9,2-2,2s-2-0.9-2-2S387.7,158.6,388.8,158.6 M388.8,156.6c-2.2,0-4,1.8-4,4
			s1.8,4,4,4s4-1.8,4-4S391,156.6,388.8,156.6L388.8,156.6z"/>
	</g>
	<g>
		<circle class="st9" cx="400.8" cy="161.6" r="3"/>
		<path class="st2" d="M400.8,159.6c1.1,0,2,0.9,2,2s-0.9,2-2,2s-2-0.9-2-2S399.7,159.6,400.8,159.6 M400.8,157.6c-2.2,0-4,1.8-4,4
			s1.8,4,4,4s4-1.8,4-4S403,157.6,400.8,157.6L400.8,157.6z"/>
	</g>
	<g>
		<circle class="st9" cx="412.8" cy="162.6" r="3"/>
		<path class="st2" d="M412.8,160.6c1.1,0,2,0.9,2,2s-0.9,2-2,2s-2-0.9-2-2S411.7,160.6,412.8,160.6 M412.8,158.6c-2.2,0-4,1.8-4,4
			s1.8,4,4,4s4-1.8,4-4S415,158.6,412.8,158.6L412.8,158.6z"/>
	</g>
	<polygon class="st10" points="366.8,156.6 374.8,157.6 374.8,159.6 	"/>
	<polygon class="st10" points="368.8,159.6 376.8,160.6 376.8,162.6 	"/>
	<polygon class="st10" points="369.8,162.6 377.8,163.6 377.8,165.6 	"/>
	<g id="Layer_5">
		<path class="st11" d="M150.9,66.2c0-0.4,0.1-0.8,0.1-1.2c0-8.3-6.7-15-15-15c-5.4,0-10.1,2.8-12.7,7.1c-1.3-0.7-2.8-1.1-4.3-1.1
			c-5,0-9,4-9,9c0,0.3,0,0.6,0,0.9c-5.8,2.1-10,7.6-10,14.1c0,8.3,6.8,15,15,15h30c8.3,0,15-6.8,15-15
			C160,73.9,156.3,68.6,150.9,66.2z"/>
		<path class="st11" d="M540.9,16.2c0-0.4,0.1-0.8,0.1-1.2c0-8.3-6.7-15-15-15c-5.4,0-10.1,2.8-12.7,7.1C512,6.4,510.5,6,509,6
			c-5,0-9,4-9,9c0,0.3,0,0.6,0,0.9c-5.8,2.1-10,7.6-10,14.1c0,8.3,6.8,15,15,15h30c8.3,0,15-6.8,15-15
			C550,23.9,546.3,18.6,540.9,16.2z"/>
	</g>
</g>
<g id="Layer_1">
	<g>
		<path class="st12" d="M-2,183v-5h2c24.6,0,36.5-5.2,49.2-10.6c12.5-5.4,25.4-10.9,50.8-10.9c25.3,0,38.1,3.5,50.5,6.8
			c12.2,3.3,24.7,6.7,49.5,6.7c24.6,0,36.6-4.5,49.3-9.3c12.5-4.7,25.3-9.6,50.7-9.6c25.4,0,38.3,5.6,50.8,10.9
			c12.7,5.5,24.6,10.6,49.2,10.6c24.7,0,37.3-3.4,49.5-6.7c12.4-3.3,25.3-6.8,50.5-6.8c25.4,0,38.3,4.9,50.8,9.6
			c12.7,4.8,24.7,9.3,49.2,9.3h2v5H-2z"/>
		<path class="st2" d="M300,153c50,0,50,21.6,100,21.6s50-13.5,100-13.5S550.1,180,600,180v1H0v-1c50,0,50-21.6,100-21.6
			s50,13.5,100,13.5S250,153,300,153 M300,149c-25.7,0-38.8,4.9-51.4,9.7c-12.5,4.7-24.3,9.2-48.6,9.2c-24.5,0-36.4-3.2-49-6.6
			c-12.5-3.4-25.5-6.9-51-6.9c-25.8,0-38.9,5.6-51.6,11.1C35.9,170.9,24.2,176,0,176h-4v4v1v4h4h600h4v-4v-1v-4h-4
			c-24.2,0-36-4.5-48.5-9.2c-12.7-4.8-25.7-9.7-51.5-9.7c-25.5,0-38.5,3.5-51,6.9c-12.6,3.4-24.5,6.6-49,6.6
			c-24.2,0-35.9-5.1-48.4-10.5C338.9,154.7,325.8,149,300,149L300,149z"/>
	</g>
	<g>
		<circle class="st12" cx="100" cy="158.4" r="6"/>
		<path class="st2" d="M100,154.4c2.2,0,4,1.8,4,4s-1.8,4-4,4s-4-1.8-4-4S97.8,154.4,100,154.4 M100,150.4c-4.4,0-8,3.6-8,8
			s3.6,8,8,8s8-3.6,8-8S104.4,150.4,100,150.4L100,150.4z"/>
	</g>
	<g>
		<circle class="st12" cx="300" cy="153" r="6"/>
		<path class="st2" d="M300,149c2.2,0,4,1.8,4,4s-1.8,4-4,4s-4-1.8-4-4S297.8,149,300,149 M300,145c-4.4,0-8,3.6-8,8s3.6,8,8,8
			s8-3.6,8-8S304.4,145,300,145L300,145z"/>
	</g>
	<g>
		<circle class="st12" cx="500" cy="161.1" r="6"/>
		<path class="st2" d="M500,157.1c2.2,0,4,1.8,4,4s-1.8,4-4,4s-4-1.8-4-4S497.8,157.1,500,157.1 M500,153.1c-4.4,0-8,3.6-8,8
			s3.6,8,8,8s8-3.6,8-8S504.4,153.1,500,153.1L500,153.1z"/>
	</g>
</g>
</svg>
