<?xml version="1.0" encoding="utf-8"?>
<svg version="1.1" id="Layer_1" xmlns="http://www.w3.org/2000/svg" xmlns:xlink="http://www.w3.org/1999/xlink" x="0px" y="0px"
	 viewBox="0 0 360 200" width="360" height="200" style="enable-background:new 0 0 360 200;" xml:space="preserve" preserveAspectRatio="xMidYMid meet">
<style type="text/css">
	.st0{fill:#EDF0F1;}
	.st1{fill:#EEF0F1;}
	.st2{fill:#FFFFFF;}
	.st3{display:none;}
	.st4{display:inline;fill:#EEF0F1;}
	.st5{display:inline;fill:#FFFFFF;}
	.st6{fill:#F8E6CD;}
	.st7{fill:none;stroke:#CBCFD3;stroke-miterlimit:10;}
	.st8{fill:#C92027;}
	.st9{fill:#CCD0D3;}
	.st10{fill:#C92128;}
	.st11{fill:#005292;}
	.st12{fill:#CBCFD3;}
	.st13{fill:#971C1F;}
</style>
<g id="Layer_4">
	<path class="st0" d="M60,200c29.9,0,29.6-23,60-23s30.9,13.6,60,13.6s30.3-9.6,60-9.6s29.7,19,60,19H60z"/>
	<g>
		<circle class="st1" cx="120" cy="177" r="4.5"/>
		<path class="st2" d="M120,174c1.7,0,3,1.3,3,3s-1.3,3-3,3s-3-1.3-3-3S118.3,174,120,174 M120,171c-3.3,0-6,2.7-6,6s2.7,6,6,6
			s6-2.7,6-6S123.3,171,120,171L120,171z"/>
	</g>
	<g class="st3">
		<circle class="st4" cx="240" cy="181" r="4.5"/>
		<path class="st5" d="M240,178c1.7,0,3,1.3,3,3s-1.3,3-3,3s-3-1.3-3-3S238.3,178,240,178 M240,175c-3.3,0-6,2.7-6,6s2.7,6,6,6
			s6-2.7,6-6S243.3,175,240,175L240,175z"/>
	</g>
</g>
<g id="Layer_3">
	<path class="st6" d="M200,159.9c0,0,17.2-1.3,33.6,1.5c5.4-32,7.5-76,7.5-76S229.9,126.3,200,159.9z"/>
	<path class="st6" d="M232.7,164.9c11.6-30.4,8.3-80,8.3-80c17.5,24.9,19.9,82.6,19.9,82.6S246,167.5,232.7,164.9z"/>
	<path class="st6" d="M265,168.2c0,0,3.8-12.4,1.9-36.4c14.9,22.8,16,39.6,16,39.6S275.3,171.1,265,168.2z"/>
	<path class="st7" d="M230.5,172.6c0,0,10.6-28.2,10.6-95.3"/>
	<path class="st7" d="M264.4,175.8c0,0,2.5-28.7,2.5-50.9"/>
	<path class="st8" d="M188.6,163.6c0,0,38.5,12.6,93.1,12.6c0,0,0.1,3-2.1,3s-4.5,0-4.5,0s-1.6,0-2.4,1.6c-0.8,1.7-7.8,15-7.8,15
		l-45.9-3.4l-12.8-18.5c0,0-1.6-1.8-2.9-2.3c-1.3-0.5-13.8-4.8-13.8-4.8S188.4,166.3,188.6,163.6z"/>
	<g>
		<path class="st9" d="M281.8,176.8c-54.2,0-93.2-12.6-93.6-12.7c-0.8-0.3-1.2-1.1-1-1.9s1.1-1.2,1.9-1c0.4,0.1,39,12.6,92.7,12.6
			c0.8,0,1.5,0.7,1.5,1.5S282.6,176.8,281.8,176.8z"/>
	</g>
	<g>
		<path class="st2" d="M281.8,175.8c-54.2,0-93.2-12.6-93.6-12.7c-0.8-0.3-1.2-1.1-1-1.9s1.1-1.2,1.9-1c0.4,0.1,39,12.6,92.7,12.6
			c0.8,0,1.5,0.7,1.5,1.5S282.6,175.8,281.8,175.8z"/>
	</g>
	<path class="st10" d="M266.3,124.3c0,0,1.2-2,4-2s6.1,4,8,4c3.2,0,6-1,6-1s-2.7,4-6,4c-2.6,0-4.8-2-8-2c-2,0-4,3-4,3V124.3z"/>
	<path class="st11" d="M240.6,77.3c0,0,1.2-2,4-2s6.1,4,8,4c3.2,0,6-1,6-1s-2.7,4-6,4c-2.6,0-4.8-2-8-2c-2,0-4,3-4,3V77.3z"/>
	<g>
		<circle class="st12" cx="236" cy="183" r="3"/>
		<path class="st2" d="M236,181c1.1,0,2,0.9,2,2s-0.9,2-2,2s-2-0.9-2-2S234.9,181,236,181 M236,179c-2.2,0-4,1.8-4,4s1.8,4,4,4
			s4-1.8,4-4S238.2,179,236,179L236,179z"/>
	</g>
	<g>
		<circle class="st12" cx="248" cy="184" r="3"/>
		<path class="st2" d="M248,182c1.1,0,2,0.9,2,2s-0.9,2-2,2s-2-0.9-2-2S246.9,182,248,182 M248,180c-2.2,0-4,1.8-4,4s1.8,4,4,4
			s4-1.8,4-4S250.2,180,248,180L248,180z"/>
	</g>
	<g>
		<circle class="st12" cx="260" cy="185" r="3"/>
		<path class="st2" d="M260,183c1.1,0,2,0.9,2,2s-0.9,2-2,2s-2-0.9-2-2S258.9,183,260,183 M260,181c-2.2,0-4,1.8-4,4s1.8,4,4,4
			s4-1.8,4-4S262.2,181,260,181L260,181z"/>
	</g>
	<polygon class="st13" points="214,179 222,180 222,182 	"/>
	<polygon class="st13" points="216,182 224,183 224,185 	"/>
	<polygon class="st13" points="217,185 225,186 225,188 	"/>
</g>
<g id="Layer_1_1_">
	<g>
		<path class="st11" d="M-1.5,202.5v-4H0c14.6,0,21.8-3.8,29.3-7.8c7.5-4,15.3-8.2,30.7-8.2c15.2,0,23,2.6,30.5,5.1
			c7.6,2.5,14.8,4.9,29.5,4.9c14.7,0,21.8-3.3,29.4-6.9c7.5-3.5,15.3-7.1,30.6-7.1c15.4,0,23.2,4.2,30.7,8.2
			c7.5,4,14.7,7.8,29.3,7.8c14.8,0,21.9-2.4,29.5-4.9c7.5-2.5,15.2-5.1,30.5-5.1c15.3,0,23.1,3.6,30.7,7.1
			c7.6,3.5,14.7,6.9,29.3,6.9h1.5v4H-1.5z"/>
		<path class="st2" d="M180,180c30,0,30,16,60,16s30-10,60-10s30.1,14,60,14v1H0v-1c30,0,30-16,60-16s30,10,60,10S150,180,180,180
			 M180,177c-15.7,0-23.6,3.7-31.3,7.3c-7.4,3.5-14.4,6.7-28.7,6.7c-14.5,0-21.6-2.4-29.1-4.8c-7.6-2.5-15.5-5.2-30.9-5.2
			c-15.8,0-23.7,4.2-31.4,8.4C21.2,193.3,14.3,197,0,197h-3v3v1v3h3h360h3v-3v-1v-3h-3c-14.3,0-21.3-3.3-28.7-6.7
			c-7.7-3.6-15.6-7.3-31.3-7.3c-15.5,0-23.3,2.6-30.9,5.2c-7.5,2.5-14.5,4.8-29.1,4.8c-14.3,0-21.2-3.7-28.6-7.6
			C203.7,181.2,195.8,177,180,177L180,177z"/>
	</g>
	<g>
		<circle class="st11" cx="60" cy="184" r="4.5"/>
		<path class="st2" d="M60,181c1.7,0,3,1.3,3,3s-1.3,3-3,3s-3-1.3-3-3S58.3,181,60,181 M60,178c-3.3,0-6,2.7-6,6s2.7,6,6,6
			s6-2.7,6-6S63.3,178,60,178L60,178z"/>
	</g>
	<g>
		<circle class="st11" cx="180" cy="180" r="4.5"/>
		<path class="st2" d="M180,177c1.7,0,3,1.3,3,3s-1.3,3-3,3s-3-1.3-3-3S178.3,177,180,177 M180,174c-3.3,0-6,2.7-6,6s2.7,6,6,6
			s6-2.7,6-6S183.3,174,180,174L180,174z"/>
	</g>
	<g>
		<circle class="st11" cx="300" cy="186" r="4.5"/>
		<path class="st2" d="M300,183c1.7,0,3,1.3,3,3s-1.3,3-3,3s-3-1.3-3-3S298.3,183,300,183 M300,180c-3.3,0-6,2.7-6,6s2.7,6,6,6
			s6-2.7,6-6S303.3,180,300,180L300,180z"/>
	</g>
</g>
<g id="Layer_5">
	<path class="st1" d="M110.9,89.2c0-0.4,0.1-0.8,0.1-1.2c0-8.3-6.7-15-15-15c-5.4,0-10.1,2.8-12.7,7.1C82,79.4,80.5,79,79,79
		c-5,0-9,4-9,9c0,0.3,0,0.6,0,0.9C64.2,91,60,96.5,60,103c0,8.3,6.8,15,15,15h30c8.3,0,15-6.8,15-15C120,96.9,116.3,91.6,110.9,89.2
		z"/>
	<path class="st1" d="M320.9,44.2c0-0.4,0.1-0.8,0.1-1.2c0-8.3-6.7-15-15-15c-5.4,0-10.1,2.8-12.7,7.1c-1.3-0.7-2.8-1.1-4.3-1.1
		c-5,0-9,4-9,9c0,0.3,0,0.6,0,0.9c-5.8,2.1-10,7.6-10,14.1c0,8.3,6.8,15,15,15h30c8.3,0,15-6.8,15-15
		C330,51.9,326.3,46.6,320.9,44.2z"/>
</g>
</svg>
