<?xml version="1.0" encoding="utf-8"?>
<svg version="1.1" xmlns="http://www.w3.org/2000/svg" xmlns:xlink="http://www.w3.org/1999/xlink" x="0px" y="0px"
	 viewBox="0 0 1024 180" width="1024" height="180" style="enable-background:new 0 0 1024 180;" xml:space="preserve" preserveAspectRatio="xMidYMid meet">
<style type="text/css">
	.st0{fill-rule:evenodd;clip-rule:evenodd;fill:#EDF0F1;}
	.st1{fill-rule:evenodd;clip-rule:evenodd;fill:#EEF0F1;}
	.st2{fill:#FFFFFF;}
	.st3{display:none;}
	.st4{display:inline;fill-rule:evenodd;clip-rule:evenodd;fill:#EEF0F1;}
	.st5{display:inline;fill:#FFFFFF;}
	.st6{fill:#F8E6CD;}
	.st7{fill:none;stroke:#CBCFD3;stroke-miterlimit:10;}
	.st8{fill:#C92027;}
	.st9{fill:#CCD0D3;}
	.st10{fill:#C92128;}
	.st11{fill:#005292;}
	.st12{fill:#CBCFD3;}
	.st13{fill:#971C1F;}
	.st14{fill:#EFF0F1;}
	.st15{fill-rule:evenodd;clip-rule:evenodd;fill:#005292;}
</style>
<g id="Layer_2">
	<path class="st0" d="M170.7,180c85,0,84.1-48,170.7-48c86.5,0,87.9,28.4,170.7,28.4c82.8,0,86.2-20,170.7-20
		c84.5,0,84.4,39.7,170.7,39.7H170.7z"/>
	<g>
		<circle class="st1" cx="341.3" cy="132" r="6"/>
		<path class="st2" d="M341.3,128c2.2,0,4,1.8,4,4s-1.8,4-4,4s-4-1.8-4-4S339.1,128,341.3,128 M341.3,124c-4.4,0-8,3.6-8,8
			s3.6,8,8,8s8-3.6,8-8S345.7,124,341.3,124L341.3,124z"/>
	</g>
	<g class="st3">
		<circle class="st4" cx="682.7" cy="140.3" r="6"/>
		<path class="st5" d="M682.7,136.3c2.2,0,4,1.8,4,4c0,2.2-1.8,4-4,4c-2.2,0-4-1.8-4-4C678.7,138.1,680.5,136.3,682.7,136.3
			 M682.7,132.3c-4.4,0-8,3.6-8,8s3.6,8,8,8s8-3.6,8-8S687.1,132.3,682.7,132.3L682.7,132.3z"/>
	</g>
</g>
<g id="Layer_3">
	<path class="st6" d="M637,134.4c0,0,17.2-1.3,33.6,1.5c5.4-32,7.5-76,7.5-76S666.9,100.8,637,134.4z"/>
	<path class="st6" d="M669.7,139.4c11.6-30.4,8.3-80,8.3-80C695.6,84.3,698,142,698,142S683,142,669.7,139.4z"/>
	<path class="st6" d="M702,142.7c0,0,3.8-12.4,1.9-36.4c14.9,22.7,16,39.6,16,39.6S712.3,145.6,702,142.7z"/>
	<path class="st7" d="M667.5,147.1c0,0,10.6-28.2,10.6-95.3"/>
	<path class="st7" d="M701.4,150.3c0,0,2.5-28.7,2.5-50.9"/>
	<path class="st8" d="M625.6,138.1c0,0,38.5,12.6,93.1,12.6c0,0,0.1,3-2.1,3c-2.2,0-4.5,0-4.5,0s-1.6,0-2.4,1.6
		c-0.8,1.7-7.8,15-7.8,15l-45.9-3.4l-12.8-18.5c0,0-1.6-1.8-2.9-2.3c-1.3-0.5-13.8-4.8-13.8-4.8S625.4,140.8,625.6,138.1z"/>
	<g>
		<path class="st9" d="M718.8,151.3c-54.2,0-93.2-12.6-93.6-12.7c-0.8-0.3-1.2-1.1-1-1.9s1.1-1.2,1.9-1c0.4,0.1,39,12.6,92.7,12.6
			c0.8,0,1.5,0.7,1.5,1.5S719.6,151.3,718.8,151.3z"/>
	</g>
	<g>
		<path class="st2" d="M718.8,150.3c-54.2,0-93.2-12.6-93.6-12.7c-0.8-0.3-1.2-1.1-1-1.9s1.1-1.2,1.9-1c0.4,0.1,39,12.6,92.7,12.6
			c0.8,0,1.5,0.7,1.5,1.5S719.6,150.3,718.8,150.3z"/>
	</g>
	<path class="st10" d="M703.3,98.8c0,0,1.2-2,4-2s6.1,4,8,4c3.2,0,6-1,6-1s-2.7,4-6,4c-2.6,0-4.8-2-8-2c-2,0-4,3-4,3V98.8z"/>
	<path class="st11" d="M677.6,51.8c0,0,1.2-2,4-2s6.1,4,8,4c3.2,0,6-1,6-1s-2.7,4-6,4c-2.6,0-4.8-2-8-2c-2,0-4,3-4,3V51.8z"/>
	<g>
		<circle class="st12" cx="673" cy="157.5" r="3"/>
		<path class="st2" d="M673,155.5c1.1,0,2,0.9,2,2s-0.9,2-2,2s-2-0.9-2-2S671.9,155.5,673,155.5 M673,153.5c-2.2,0-4,1.8-4,4
			s1.8,4,4,4s4-1.8,4-4S675.2,153.5,673,153.5L673,153.5z"/>
	</g>
	<g>
		<circle class="st12" cx="685" cy="158.5" r="3"/>
		<path class="st2" d="M685,156.5c1.1,0,2,0.9,2,2s-0.9,2-2,2s-2-0.9-2-2S683.9,156.5,685,156.5 M685,154.5c-2.2,0-4,1.8-4,4
			s1.8,4,4,4s4-1.8,4-4S687.2,154.5,685,154.5L685,154.5z"/>
	</g>
	<g>
		<circle class="st12" cx="697" cy="159.5" r="3"/>
		<path class="st2" d="M697,157.5c1.1,0,2,0.9,2,2s-0.9,2-2,2s-2-0.9-2-2S695.9,157.5,697,157.5 M697,155.5c-2.2,0-4,1.8-4,4
			s1.8,4,4,4s4-1.8,4-4S699.2,155.5,697,155.5L697,155.5z"/>
	</g>
	<polygon class="st13" points="651,153.5 659,154.5 659,156.5 	"/>
	<polygon class="st13" points="653,156.5 661,157.5 661,159.5 	"/>
	<polygon class="st13" points="654,159.5 662,160.5 662,162.5 	"/>
</g>
<g id="Layer_4">
	<path class="st14" d="M362.2,56.2c0-0.4,0.1-0.8,0.1-1.2c0-8.3-6.7-15-15-15c-5.4,0-10.1,2.8-12.7,7.1c-1.3-0.7-2.8-1.1-4.3-1.1
		c-5,0-9,4-9,9c0,0.3,0,0.6,0,0.9c-5.8,2.1-10,7.6-10,14.1c0,8.3,6.8,15,15,15h30c8.3,0,15-6.8,15-15
		C371.3,63.9,367.6,58.6,362.2,56.2z"/>
	<path class="st14" d="M904.2,16.2c0-0.4,0.1-0.8,0.1-1.2c0-8.3-6.7-15-15-15c-5.4,0-10.1,2.8-12.7,7.1c-1.3-0.7-2.8-1.1-4.3-1.1
		c-5,0-9,4-9,9c0,0.3,0,0.6,0,0.9c-5.8,2.1-10,7.6-10,14.1c0,8.3,6.8,15,15,15h30c8.3,0,15-6.8,15-15
		C913.3,23.9,909.6,18.6,904.2,16.2z"/>
</g>
<g id="Layer_1">
	<g>
		<path class="st15" d="M-2,183v-5h2c42.3,0,63.8-8.4,84.6-16.6c21.1-8.3,43-16.8,86.1-16.8c42.9,0,64.7,5.3,85.8,10.5
			c20.9,5.1,42.4,10.4,84.9,10.4c42.3,0,63.9-7.4,84.7-14.5c21.1-7.2,43-14.7,86-14.7c43,0,64.9,8.6,86.1,16.8
			c20.8,8.1,42.3,16.6,84.6,16.6c42.4,0,64-5.3,84.9-10.4c21.1-5.2,42.9-10.5,85.8-10.5c43,0,64.9,7.5,86.1,14.7
			c20.8,7.1,42.4,14.5,84.6,14.5h2v5H-2z"/>
		<path class="st2" d="M512,138.3c85.3,0,85.3,33.4,170.7,33.4s85.3-20.9,170.7-20.9S938.9,180,1024,180v1H0v-1
			c85.3,0,85.3-33.4,170.7-33.4s85.3,20.9,170.7,20.9S426.7,138.3,512,138.3 M512,134.3c-43.3,0-65.3,7.5-86.6,14.8
			c-21.6,7.4-42,14.4-84,14.4c-42.2,0-63.6-5.2-84.4-10.3c-21.2-5.2-43.1-10.5-86.3-10.5c-43.4,0-65.5,8.6-86.8,17
			C62.3,168,41.9,176,0,176h-4v4v1v4h4h1024h4v-4v-1v-4h-4c-41.9,0-62.3-7-83.9-14.4c-21.3-7.3-43.4-14.8-86.8-14.8
			c-43.1,0-65.1,5.4-86.3,10.5c-20.7,5.1-42.2,10.3-84.4,10.3c-41.9,0-62.3-8-83.9-16.4C577.5,142.9,555.4,134.3,512,134.3
			L512,134.3z"/>
	</g>
	<g>
		<circle class="st15" cx="170.7" cy="146.6" r="6"/>
		<path class="st2" d="M170.7,142.6c2.2,0,4,1.8,4,4c0,2.2-1.8,4-4,4c-2.2,0-4-1.8-4-4C166.7,144.4,168.5,142.6,170.7,142.6
			 M170.7,138.6c-4.4,0-8,3.6-8,8s3.6,8,8,8s8-3.6,8-8S175.1,138.6,170.7,138.6L170.7,138.6z"/>
	</g>
	<g>
		<circle class="st15" cx="512" cy="138.3" r="6"/>
		<path class="st2" d="M512,134.3c2.2,0,4,1.8,4,4s-1.8,4-4,4c-2.2,0-4-1.8-4-4S509.8,134.3,512,134.3 M512,130.3c-4.4,0-8,3.6-8,8
			s3.6,8,8,8c4.4,0,8-3.6,8-8S516.4,130.3,512,130.3L512,130.3z"/>
	</g>
	<g>
		<circle class="st15" cx="853.3" cy="150.8" r="6"/>
		<path class="st2" d="M853.3,146.8c2.2,0,4,1.8,4,4s-1.8,4-4,4c-2.2,0-4-1.8-4-4S851.1,146.8,853.3,146.8 M853.3,142.8
			c-4.4,0-8,3.6-8,8s3.6,8,8,8s8-3.6,8-8S857.7,142.8,853.3,142.8L853.3,142.8z"/>
	</g>
</g>
</svg>
