<?xml version="1.0" encoding="utf-8"?>
<svg version="1.1" id="Layer_1" xmlns="http://www.w3.org/2000/svg" xmlns:xlink="http://www.w3.org/1999/xlink" x="0px" y="0px"
	 viewBox="0 0 80 20" width="80" height="20" style="enable-background:new 0 0 80 20;" preserveAspectRatio="xMidYMid meet" xml:space="preserve">
<style type="text/css">
	.st0{fill:#00569A;}
	.st1{fill:#FFFFFF;}
</style>
<path class="st0" d="M60,0H20c0,11,9,20,20,20S60,11,60,0z"/>
<path class="st0" d="M22.7,10C17.2,0,0,0,0,0l0,0h22.7V10z"/>
<path class="st0" d="M57.3,10C62.8,0,80,0,80,0l0,0H57.3V10z"/>
<path class="st1" d="M45.7,7.2c0.8-0.8,0.8-2.1,0-2.8L40,10l-5.7-5.7c-0.8,0.8-0.8,2.1,0,2.8l4.2,4.2c0.8,0.8,2.1,0.8,2.8,0l0,0
	c0,0,0,0,0,0L45.7,7.2z"/>
</svg>
