<?xml version="1.0" encoding="utf-8"?>
<svg version="1.1" id="Vrstva_2" xmlns="http://www.w3.org/2000/svg" xmlns:xlink="http://www.w3.org/1999/xlink" x="0px" y="0px"
	 viewBox="0 0 500 500" width="44" height="44" style="enable-background:new 0 0 500 500;" xml:space="preserve" preserveAspectRatio="xMidYMid meet">
<style type="text/css">
	.st0{fill:#FFFFFF;}
</style>
<g>
	<path class="st0" d="M334.8,358.3c0,11.1-5.6,24.5-18.5,29.8h17.2c17.2,0,31.1-14,31.1-31.1v-29.6h-30L334.8,358.3L334.8,358.3z
		 M333.6,213.4h-18c10.1,5.1,19.3,16.9,19.3,29.8v31.5h30v-30.1C364.7,227.4,350.7,213.4,333.6,213.4z"/>
	<path class="st0" d="M362.5,280.2h-55.2c-6.9,0-12.5,5.6-12.5,12.5v16.7c0,6.9,5.6,12.5,12.5,12.5h55.2c6.9,0,12.5-5.6,12.5-12.5
		v-16.7C375,285.8,369.4,280.2,362.5,280.2z M327.4,304.2c0,4.8-4,8.8-8.8,8.8h-6.7c-4.8,0-8.8-4-8.8-8.8v-6.7c0-4.8,4-8.8,8.8-8.8
		h6.7c4.8,0,8.8,4,8.8,8.8V304.2z"/>
	<path class="st0" d="M306.2,274.6h23.2v-29.4c0-17.2-14-29.7-31.1-29.7h-142c-17.2,0-31.1,14-31.1,31.1v110.1
		c0,17.2,14,31.1,31.1,31.1h142c17.2,0,31.1-14,31.1-31.1v-29.6h-23.2c-7.8,0-16.4-7.8-16.4-15.7v-21.1
		C289.7,282.5,298.3,274.6,306.2,274.6z"/>
	<path class="st0" d="M251.3,112L194,129.4l62.6-0.1L251.3,112z M139.8,145.9l19.3,63.8h25.4l-0.1-77.3L139.8,145.9z"/>
	<path class="st0" d="M238.5,154.6c-5.1,0-8.9,6.2-8.9,18c0,11.2,3.4,17.6,8.8,17.6c6,0,8.9-7,8.9-18
		C247.3,161.5,244.6,154.6,238.5,154.6z M304.2,135.4l-113.6,0.1l0.1,74.2h103c3.7,0,6.6,0.3,10.6,0.7L304.2,135.4z M216.5,194h-5.6
		v-37.7h-0.1l-7.5,4l-1.1-4.5l9.5-5.1h5L216.5,194L216.5,194z M238.2,194.7c-8.4,0-14.1-7.9-14.3-22.2c0-14.5,6.2-22.5,15-22.5
		c9.1,0,14.3,8.1,14.3,21.8C253.2,186.6,247.8,194.7,238.2,194.7z M273.2,194.7c-8.4,0-14.1-7.9-14.3-22.2c0-14.5,6.2-22.5,15-22.5
		c9.1,0,14.3,8.1,14.3,21.8C288.2,186.6,282.8,194.7,273.2,194.7z M273.6,154.6c-5.1,0-8.9,6.2-8.9,18c0,11.2,3.4,17.6,8.8,17.6
		c6,0,8.9-7,8.9-18C282.4,161.5,279.6,154.6,273.6,154.6z"/>
</g>
</svg>
