<?xml version="1.0" encoding="utf-8"?>
<svg version="1.1" id="Layer_5_copy_2" xmlns="http://www.w3.org/2000/svg" xmlns:xlink="http://www.w3.org/1999/xlink" x="0px"
	 y="0px" viewBox="0 0 500 500" width="44" height="44" style="enable-background:new 0 0 500 500;" xml:space="preserve" preserveAspectRatio="xMidYMid meet">
<style type="text/css">
	.st0{fill:#FFFFFF;}
</style>
<g>
	<path class="st0" d="M250,100l-125,25v125c0,0,0,150,125,150s125-150,125-150V125L250,100z M308.8,193.3l-26.7,25.6l20.7,62.5
		l-13.1,13.1l-32.1-52.1l-27.5,26.4l2.8,16.9l-11.9,11.9l-8.7-24.8l-24.8-8.7l11.9-11.9l16.9,2.8l26.4-27.5l-52.1-32.1l13.1-13.1
		l62.5,20.7l25.6-26.7c4.7-4.9,12.4-5,17.2-0.2C313.7,180.8,313.7,188.6,308.8,193.3z"/>
</g>
</svg>
