<?xml version="1.0" encoding="utf-8"?>
<svg version="1.1" id="Vrstva_2" xmlns="http://www.w3.org/2000/svg" xmlns:xlink="http://www.w3.org/1999/xlink" x="0px" y="0px"
	 viewBox="0 0 500 500" width="44" height="44" style="enable-background:new 0 0 500 500;" xml:space="preserve" preserveAspectRatio="xMidYMid meet">
<style type="text/css">
	.st0{fill:#FFFFFF;}
</style>
<g>
	<path class="st0" d="M341.2,201.1H158.7c-4.9,0-8.8-4-8.8-8.8v-3.2c0-4.9,4-8.8,8.8-8.8h182.4c4.9,0,8.8,4,8.8,8.8v3.2
		C350,197.1,346,201.1,341.2,201.1z"/>
	<path class="st0" d="M266.6,339.1h-33.1c-4.9,0-8.8-4-8.8-8.8v-3.2c0-4.9,4-8.8,8.8-8.8h33.1c4.9,0,8.8,4,8.8,8.8v3.2
		C275.4,335.1,271.4,339.1,266.6,339.1z"/>
	<path class="st0" d="M166.9,207.5c0,21.2,5.1,27.2,11.4,35.4l18.7,24.5c6.2,8.2,11.4,12.1,11.4,22.3v4c0,10.3,8.5,18.7,18.7,18.7
		h46c10.3,0,18.7-8.5,18.7-18.7v-4c0-10.3,5.1-14.2,11.3-22.4l18.5-24.4c6.2-8.2,11.3-14,11.3-35.4L166.9,207.5L166.9,207.5z"/>
	<rect x="238.4" y="344.7" class="st0" width="23.5" height="30.4"/>
	<path class="st0" d="M199.2,125.1h-2.9c-4.9,0-8.8,4-8.8,8.8v47.4H208v-47.4C208,129.1,204,125.1,199.2,125.1z M303.5,125.1h-2.9
		c-4.9,0-8.8,4-8.8,8.8v47.4h20.6v-47.4C312.4,129.1,308.4,125.1,303.5,125.1z"/>
</g>
</svg>
