<?xml version="1.0" encoding="utf-8"?>
<svg version="1.1" id="Layer_5_copy_2" xmlns="http://www.w3.org/2000/svg" xmlns:xlink="http://www.w3.org/1999/xlink" x="0px"
	 y="0px" viewBox="0 0 500 500" width="44" height="44" style="enable-background:new 0 0 500 500;" xml:space="preserve" preserveAspectRatio="xMidYMid meet">
<style type="text/css">
	.st0{fill:#FFFFFF;}
</style>
<g>
	<path class="st0" d="M386.9,246.8L350,209.9v-62.5c0-6.9-5.6-12.5-12.5-12.5h-25c-6.9,0-12.5,5.6-12.5,12.5v12.5l-41.2-41.2
		c-4.9-4.9-12.8-4.9-17.7,0l-128,128c-4.8,4.8-1.4,13.1,5.4,13.1h18.9v112.5c0,6.9,5.6,12.5,12.5,12.5h200c6.9,0,12.5-5.6,12.5-12.5
		V259.9h19C388.3,259.9,391.7,251.7,386.9,246.8z M281.1,310.3c-2.6,2.5-5.4,4.6-8.6,6.3c-3.2,1.7-6.6,3-10.3,3.9
		c-3.6,0.9-7.2,1.3-10.7,1.3c-4.8,0-9.3-0.8-13.4-2.4c-4.2-1.6-8-3.8-11.4-6.5c-3.4-2.7-6.3-5.9-8.8-9.5c-2.5-3.6-4.4-7.5-5.8-11.7
		h-12.6l3.8-9h6.8c-0.2-1.7-0.4-3.5-0.4-5.3v-0.9h-8.5l3.6-9h6c1-4.4,2.6-8.6,4.9-12.6c2.3-4,5.2-7.5,8.8-10.6s7.6-5.5,12.3-7.3
		c4.7-1.8,9.8-2.7,15.5-2.7c7.9,0,14.8,1.7,20.6,5.2c5.8,3.5,10.1,8,12.9,13.6l-12.9,8.9c-1.1-2.4-2.5-4.5-4.1-6.1
		c-1.6-1.7-3.4-3-5.2-4c-1.9-1-3.8-1.7-5.8-2.1c-2-0.4-4-0.7-6-0.7c-3.2,0-6,0.5-8.6,1.5c-2.6,1-4.8,2.3-6.7,4
		c-1.9,1.7-3.6,3.6-5,5.8c-1.4,2.2-2.4,4.6-3.2,7.1h31.1l-3.6,9h-29.1v1.3c0,1.7,0.1,3.3,0.4,4.9h28.4l-3.6,9h-22.2
		c2.1,4.5,5.1,8.2,8.9,11.1c3.8,2.8,8.3,4.3,13.4,4.3c1.9,0,4-0.2,6.1-0.7c2.1-0.5,4.1-1.3,6-2.3c1.9-1.1,3.7-2.4,5.3-4.1
		c1.6-1.7,2.9-3.7,3.9-6l13.7,7.9C285.6,305,283.7,307.8,281.1,310.3z"/>
</g>
</svg>
