<?xml version="1.0" encoding="utf-8"?>
<svg version="1.1" id="Vrstva_2" xmlns="http://www.w3.org/2000/svg" xmlns:xlink="http://www.w3.org/1999/xlink" x="0px" y="0px"
	 viewBox="0 0 500 500" width="44" height="44" style="enable-background:new 0 0 500 500;" xml:space="preserve" preserveAspectRatio="xMidYMid meet">
<style type="text/css">
	.st0{fill:#FFFFFF;}
</style>
<path class="st0" d="M360.6,252.4l-18.5-119.9c-0.7-4.8-5.2-8.2-10.1-7.4l-199.5,30.1c-4.8,0.7-8.2,5.2-7.4,10.1l18.5,119.9
	c0.7,4.8,5.2,8.2,10.1,7.4l23.3-3.5v-4.2l-21,3.2c-4.8,0.7-7.7-1.4-8.4-6.2l-10-64.2l208.3-31.4l10,64.2c0.7,4.8-1.4,7.7-6.2,8.4
	L227,277.3v4.2l126.2-19.1C358.1,261.8,361.4,257.3,360.6,252.4z M132.8,186.3l-2.9-19.1c-0.7-4.8,1.4-7.7,6.2-8.4l193.8-29.2
	c4.8-0.7,7.7,1.4,8.4,6.2l2.9,19.1L132.8,186.3z"/>
<path class="st0" d="M366.2,235H164.4c-4.9,0-8.8,4-8.8,8.8v122.3c0,4.9,4,8.8,8.8,8.8h201.7c4.9,0,8.8-4,8.8-8.8V243.9
	C375,239,371,235,366.2,235z M195.7,297.9h-4.9c-4.9,0-8.8-4-8.8-8.8v-24.2c0-4.9,4-8.8,8.8-8.8h4.9V297.9z M223.8,289.1
	c0,4.9-4,8.8-8.8,8.8h-15.8v-11.9h24.7V289.1z M223.8,282.7h-24.7v-11.4h24.7V282.7z M223.8,267.9h-24.7v-11.9H215
	c4.9,0,8.8,4,8.8,8.8V267.9z M331.8,354c-7,0-13.4-2.9-17.9-7.7c-4.6,4.9-11,7.9-18.3,7.9c-13.8,0-25-11.2-25-25s11.2-25,25-25
	c7.2,0,13.7,3,18.3,7.9c4.5-4.7,10.9-7.7,17.9-7.7c13.7,0,24.8,11.1,24.8,24.8C356.6,342.9,345.5,354,331.8,354z M331.8,308.8
	c-6,0-11.3,2.6-15.1,6.7c2.5,3.9,4.1,8.6,4.1,13.6c0,5-1.5,9.6-4.1,13.6c3.8,4.1,9.1,6.7,15.1,6.7c11.2,0,20.3-9.1,20.3-20.3
	C352.1,318,343,308.8,331.8,308.8z"/>
</svg>
