<?xml version="1.0" encoding="utf-8"?>
<svg version="1.1" id="Layer_5_copy_2" xmlns="http://www.w3.org/2000/svg" xmlns:xlink="http://www.w3.org/1999/xlink" x="0px"
	 y="0px" viewBox="0 0 44 44" width="44" height="44" style="enable-background:new 0 0 44 44;" xml:space="preserve" preserveAspectRatio="xMidYMid meet">
<style type="text/css">
	.st0{fill:#FFFFFF;}
</style>
<path class="st0" d="M22,8.8L11,11v11c0,0,0,13.2,11,13.2S33,22,33,22V11L22,8.8z M28.3,19.8l-0.7,0.7c-0.1,0.1-0.3,0.2-0.5,0.2
	s-0.4-0.1-0.5-0.2l-0.5-0.5c-0.1-0.1-0.2-0.3-0.2-0.5c0,0,0-0.1,0-0.1c-0.1-0.1-0.3-0.3-0.4-0.4c-0.1,0-0.3,0-0.4-0.1L25,18.6
	c-0.3,0.3-0.5,0.5-0.8,0.8c0.1,0.1,0.1,0.2,0,0.3c-0.3,0.4-0.6,0.8-0.9,1.2l2.8,2.8c0.4,0.4,0.4,0.9,0,1.3c-0.2,0.2-0.4,0.3-0.6,0.3
	s-0.5-0.1-0.6-0.3L22,22.3c-0.5,0.5-1,1-1.6,1.4c-0.6,0.5-1.3,1.1-1.9,1.7c-0.1,0.1-0.1,0.1-0.2,0.1s-0.2,0-0.2-0.1l-0.9-0.9
	c-0.1-0.1-0.1-0.1-0.1-0.2c0-0.1,0-0.2,0.1-0.2c0.6-0.6,1.2-1.3,1.7-1.9c0.4-0.5,0.9-1,1.4-1.6l-1.5-1.5c-0.3,0.1-0.6,0.2-0.9,0.2
	c-0.7,0-1.3-0.3-1.7-0.7c-0.6-0.6-0.9-1.6-0.6-2.4c0,0,0.1-0.1,0.1-0.1c0,0,0.1,0,0.1,0l1.5,1.5c0.1,0,0.3-0.2,0.8-0.6
	c0.4-0.4,0.6-0.7,0.6-0.8l-1.5-1.5c0,0,0-0.1,0-0.1s0.1-0.1,0.1-0.1c0.2-0.1,0.5-0.1,0.7-0.1c0.7,0,1.3,0.3,1.7,0.7
	c1.3,1.3,0.5,2.7,0.5,2.7l1.5,1.5c0.4-0.3,0.8-0.6,1.2-0.9c0.1-0.1,0.2-0.1,0.3,0c0.2-0.3,0.5-0.5,0.8-0.8l-0.2-0.2
	c-0.1-0.1-0.1-0.3,0-0.4c0,0,0,0,0,0c-0.1-0.2-0.3-0.4-0.4-0.6c-0.3-0.4-0.8-0.6-1.3-0.8c-0.2,0-0.4-0.1-0.7,0c-0.1,0-0.2,0-0.2,0
	c-0.1,0-0.1-0.2,0-0.2c0.4-0.2,0.8-0.4,1.2-0.4c0.9-0.1,1.8,0.3,2.6,0.8c0.1-0.1,0.3,0,0.4,0.1l1.3,1.3c0.1,0.1,0.1,0.3,0.1,0.4
	c0.1,0.1,0.3,0.3,0.4,0.4c0.1,0,0.1,0,0.2,0c0.2,0,0.4,0.1,0.5,0.2l0.5,0.5c0.1,0.1,0.2,0.3,0.2,0.5S28.4,19.7,28.3,19.8z"/>
</svg>
