<?xml version="1.0" encoding="utf-8"?>
<svg version="1.1" id="Layer_5_copy_2" xmlns="http://www.w3.org/2000/svg" xmlns:xlink="http://www.w3.org/1999/xlink" x="0px"
	 y="0px" viewBox="0 0 500 500" width="44" height="44" style="enable-background:new 0 0 500 500;" xml:space="preserve" preserveAspectRatio="xMidYMid meet">
<style type="text/css">
	.st0{fill:#FFFFFF;}
</style>
<path class="st0" d="M312.5,212.5c7.1,0,14,0.7,20.7,2.2c2.8-8.6,4.3-17.7,4.3-27.2c0-48.3-39.2-87.5-87.5-87.5
	s-87.5,39.2-87.5,87.5c0,38.5,24.8,71.1,59.3,82.9C237.8,236.2,272.4,212.5,312.5,212.5z"/>
<path class="st0" d="M217.3,282c-25.6-8.9-46.6-28-57.9-52.4C124.8,241.4,100,274,100,312.5c0,48.3,39.2,87.5,87.5,87.5
	c20,0,38.4-6.7,53.2-18c-17.4-18-28.2-42.5-28.2-69.5C212.5,301.9,214.2,291.6,217.3,282z"/>
<path class="st0" d="M312.5,225c-48.3,0-87.5,39.2-87.5,87.5s39.2,87.5,87.5,87.5s87.5-39.2,87.5-87.5S360.8,225,312.5,225z
	 M345.3,347.9c-2.5,2.5-5.3,4.6-8.5,6.3c-3.2,1.7-6.5,3-10,3.9c-3.5,0.9-7,1.3-10.4,1.3c-4.9,0-9.4-0.8-13.6-2.5
	c-4.2-1.7-8-3.9-11.4-6.8c-3.4-2.9-6.3-6.2-8.8-10c-2.4-3.8-4.3-7.8-5.6-12h-13l3.2-7.5h8.3c-0.2-1.8-0.4-3.7-0.4-5.7v-1.1h-8.8
	l3.2-7.5h6.4c0.9-4.5,2.5-8.8,4.7-12.9c2.2-4.1,5.1-7.8,8.6-11c3.5-3.2,7.6-5.8,12.2-7.7c4.7-1.9,9.8-2.9,15.5-2.9
	c7.9,0,14.6,1.7,20.2,5.2c5.6,3.5,9.8,8,12.6,13.6l-10.7,7.2c-1.2-2.6-2.7-4.8-4.4-6.6c-1.7-1.8-3.6-3.2-5.6-4.3
	c-2-1.1-4.1-1.8-6.3-2.2c-2.2-0.4-4.3-0.7-6.3-0.7c-3.6,0-6.8,0.6-9.7,1.8c-2.9,1.2-5.5,2.8-7.7,4.9c-2.2,2-4.1,4.4-5.6,7
	c-1.5,2.7-2.6,5.5-3.3,8.4H325l-3,7.5H289v1.6c0,1.8,0.1,3.5,0.4,5.2H321l-3.2,7.5h-26.5c1.1,2.8,2.4,5.3,4.1,7.6
	c1.7,2.3,3.6,4.3,5.8,6c2.2,1.7,4.6,3,7.2,4c2.6,0.9,5.4,1.4,8.4,1.4c2.1,0,4.3-0.3,6.5-0.8c2.2-0.5,4.4-1.4,6.4-2.6
	c2.1-1.2,4-2.7,5.7-4.4c1.7-1.8,3.2-3.9,4.3-6.4l11.3,6.4C349.8,342.6,347.8,345.5,345.3,347.9z"/>
</svg>
