<?xml version="1.0" encoding="utf-8"?>
<svg version="1.1" id="Layer_5_copy_2" xmlns="http://www.w3.org/2000/svg" xmlns:xlink="http://www.w3.org/1999/xlink" x="0px"
	 y="0px" viewBox="0 0 500 500" width="44" height="44" style="enable-background:new 0 0 500 500;" xml:space="preserve" preserveAspectRatio="xMidYMid meet">
<style type="text/css">
	.st0{fill:#FFFFFF;}
</style>
<g>
	<path class="st0" d="M265.8,241.5h-31.5c-5.1,0-9.3,4.2-9.3,9.3c0,5.1,4.2,9.3,9.3,9.3h31.5c5.1,0,9.3-4.2,9.3-9.3
		C275,245.7,270.8,241.5,265.8,241.5z"/>
</g>
<g>
	<path class="st0" d="M293.2,213.1l-11-22c-4.6-1.3-15.4-3.7-32.2-3.7c-16.8,0-27.6,2.4-32.2,3.7l-10.9,21.9
		c-0.3,0.7-0.5,1.3-0.8,1.9H294C293.7,214.4,293.4,213.8,293.2,213.1z"/>
</g>
<g>
	<circle class="st0" cx="206.8" cy="249" r="7.5"/>
</g>
<g>
	<path class="st0" d="M250,100l-125,25v125c0,0,0,150,125,150s125-150,125-150V125L250,100z M313.1,230h-5.2
		c5.3,14.7,4.6,17.5,4.6,17.5V265v7.5v5c0,6.9-5.6,12.5-12.5,12.5c-6.9,0-12.5-5.6-12.5-12.5v-5h-75v5c0,6.9-5.6,12.5-12.5,12.5
		c-6.9,0-12.5-5.6-12.5-12.5v-5V265v-17.5c0,0-1.4,0,4.9-17.5h-5.5c-4.1,0-7.5-3.4-7.5-7.5s3.4-7.5,7.5-7.5H198c0.6-1.6,1.3-3.2,2-5
		l12.5-25c0,0,12.5-5,37.5-5s37.5,5,37.5,5l12.5,25c0.7,1.8,1.4,3.4,2.1,5h11c4.1,0,7.5,3.4,7.5,7.5S317.2,230,313.1,230z"/>
</g>
<g>
	<circle class="st0" cx="294.5" cy="249" r="7.5"/>
</g>
</svg>
