<?xml version="1.0" encoding="utf-8"?>
<svg version="1.1" id="Layer_5_copy_2" xmlns="http://www.w3.org/2000/svg" xmlns:xlink="http://www.w3.org/1999/xlink" x="0px"
	 y="0px" viewBox="0 0 500 500" width="44" height="44" style="enable-background:new 0 0 500 500;" xml:space="preserve" preserveAspectRatio="xMidYMid meet">
<style type="text/css">
	.st0{fill:#FFFFFF;}
</style>
<path class="st0" d="M104.8,254.2c-4.4,0-7.8-1.1-10.4-2.8c-1.2,0.2-2.4,0.3-3.8,0.3c-14.2,0-17.9-11.7-17.9-17.9h7.5h-3.8l3.8,0
	c0,1.6,0.5,9,8.2,10.3c-1.1-2.6-1.5-5.1-1.5-6.7c0-6.9,3.4-14.4,10.8-14.4c8,0,10.8,6.5,10.8,10.8c0,3.6-1.2,8.9-5,12.9
	c0.4,0,0.8,0,1.2,0c9.4,0,11.4-1.1,11.5-1.2c-0.4,0.2-1.1,1.1-1.1,2.4h7.5C122.8,253.4,113.7,254.2,104.8,254.2z M97.8,230.4
	c-3.1,0-3.3,6.8-3.3,6.9c0,0.8,0.2,3.4,1.8,5.6c4.7-2.6,4.9-8.3,4.9-9.2C101,231.5,99.9,230.4,97.8,230.4z"/>
<g>
	<path class="st0" d="M391.3,200h-30.1c-8.4-11-19.4-20.7-32.4-28.5V125c-27.5,0-39.9,15.1-45.5,28.8c-11.4-2.5-23.4-3.8-35.8-3.8
		c-72.5,0-131.3,44.8-131.3,100c0,27.2,14.3,51.9,37.5,70v42.5c0,6.9,5.6,12.5,12.5,12.5h25c6.9,0,12.5-5.6,12.5-12.5v-18.2
		c13.7,3.7,28.4,5.7,43.8,5.7c6.4,0,12.6-0.4,18.8-1v13.5c0,6.9,5.6,12.5,12.5,12.5h25c6.9,0,12.5-5.6,12.5-12.5v-27.3
		c18.5-8.7,34-20.8,44.9-35.2h30.1c6.9,0,12.5-5.6,12.5-12.5v-75C403.8,205.6,398.1,200,391.3,200z M277.1,288.7
		c-2.6,2.5-5.4,4.6-8.6,6.3c-3.2,1.7-6.6,3-10.3,3.9c-3.6,0.9-7.2,1.3-10.7,1.3c-4.8,0-9.3-0.8-13.4-2.4c-4.2-1.6-8-3.8-11.4-6.5
		c-3.4-2.7-6.3-5.9-8.8-9.5c-2.5-3.6-4.4-7.5-5.8-11.7h-12.6l3.8-9h6.8c-0.2-1.7-0.4-3.5-0.4-5.3v-0.9h-8.5l3.6-9h6
		c1-4.4,2.6-8.6,4.9-12.6c2.3-4,5.2-7.5,8.8-10.6s7.6-5.5,12.3-7.3c4.7-1.8,9.8-2.7,15.5-2.7c7.9,0,14.8,1.7,20.6,5.2
		c5.8,3.5,10.1,8,12.9,13.6l-12.9,8.9c-1.1-2.4-2.5-4.5-4.1-6.1c-1.6-1.7-3.4-3-5.2-4c-1.9-1-3.8-1.7-5.8-2.1c-2-0.4-4-0.7-6-0.7
		c-3.2,0-6,0.5-8.6,1.5c-2.6,1-4.8,2.3-6.7,4c-1.9,1.7-3.6,3.6-5,5.8c-1.4,2.2-2.4,4.6-3.2,7.1h31.1l-3.6,9h-29.1v1.3
		c0,1.7,0.1,3.3,0.4,4.9h28.4l-3.6,9h-22.2c2.1,4.5,5.1,8.2,8.9,11.1c3.8,2.8,8.3,4.3,13.4,4.3c1.9,0,4-0.2,6.1-0.7
		c2.1-0.5,4.1-1.3,6-2.3c1.9-1.1,3.7-2.4,5.3-4.1c1.6-1.7,2.9-3.7,3.9-6l13.7,7.9C281.7,283.4,279.7,286.3,277.1,288.7z"/>
</g>
</svg>
