<?xml version="1.0" encoding="utf-8"?>
<svg version="1.1" id="Layer_5_copy_2" xmlns="http://www.w3.org/2000/svg" xmlns:xlink="http://www.w3.org/1999/xlink" x="0px"
	 y="0px" viewBox="0 0 44 44" width="44" height="44" style="enable-background:new 0 0 44 44;" xml:space="preserve" preserveAspectRatio="xMidYMid meet">
<style type="text/css">
	.st0{fill:#FFFFFF;}
</style>
<g>
	<rect x="10" y="20.9" class="st0" width="4.4" height="4.2"/>
	<rect x="10" y="15.7" class="st0" width="8.3" height="4.2"/>
	<path class="st0" d="M31.7,14.7v-1.6c0-1.2-0.9-2.1-2.1-2.1h-2.3v3.7H31.7z"/>
	<rect x="15.4" y="11" class="st0" width="10.9" height="3.7"/>
	<path class="st0" d="M14.4,11h-2.3C11,11,10,11.9,10,13.1v1.6h4.4V11z"/>
	<path class="st0" d="M30.7,19.6c0.3-0.1,0.6-0.1,1-0.1v-3.7h-1V19.6z"/>
	<path class="st0" d="M15.4,25h2.4v-0.1h1H19c0.3-0.3,0.7-0.5,1.1-0.5c0.2,0,0.3,0,0.5,0.1c0.9-1.8,2.9-3.1,5.3-3.6H15.4V25z"/>
	<path class="st0" d="M17.9,26H10v1.6c0,1.2,0.9,2.1,2.1,2.1h6.2v-2.5C18.1,26.9,17.9,26.5,17.9,26z"/>
	<path class="st0" d="M21.1,29.7c-0.4-0.6-0.7-1.2-0.9-1.8c-0.2,0-0.3-0.1-0.4-0.1c-0.1,0-0.3,0-0.4,0v2H21.1z"/>
	<rect x="19.4" y="15.7" class="st0" width="10.3" height="4.2"/>
</g>
<path class="st0" d="M34.9,24.2h-1.5c-0.4-0.6-1-1-1.6-1.4v-2.3c-1.4,0-2,0.8-2.3,1.4c-0.6-0.1-1.2-0.2-1.8-0.2
	c-3.6,0-6.5,2.2-6.6,4.9l0-0.1c0-0.1,0,0,0,0c0,0-0.1,0.1-0.6,0.1c0,0,0,0-0.1,0c0.2-0.2,0.3-0.5,0.3-0.6c0-0.2-0.1-0.5-0.5-0.5
	c-0.4,0-0.5,0.4-0.5,0.7c0,0.1,0,0.2,0.1,0.3c-0.4-0.1-0.4-0.4-0.4-0.5h-0.2h-0.2c0,0.3,0.2,0.9,0.9,0.9c0.1,0,0.1,0,0.2,0
	c0.1,0.1,0.3,0.1,0.5,0.1c0.2,0,0.4,0,0.6,0c0.1,1.3,0.8,2.5,1.9,3.4v2.1c0,0.3,0.3,0.6,0.6,0.6h1.3c0.3,0,0.6-0.3,0.6-0.6v-0.9
	c0.7,0.2,1.4,0.3,2.2,0.3c0.3,0,0.6,0,0.9-0.1v0.7c0,0.3,0.3,0.6,0.6,0.6h1.3c0.3,0,0.6-0.3,0.6-0.6V31c0.9-0.4,1.7-1,2.3-1.8h1.5
	c0.3,0,0.6-0.3,0.6-0.6v-3.8C35.5,24.5,35.2,24.2,34.9,24.2z M20.1,26.4C20,26.2,20,26.1,20,26.1c0,0,0-0.3,0.2-0.3
	c0.1,0,0.2,0.1,0.2,0.2C20.3,25.9,20.3,26.2,20.1,26.4z M29.2,28.7c-0.1,0.1-0.3,0.2-0.4,0.3c-0.2,0.1-0.3,0.2-0.5,0.2
	c-0.2,0-0.4,0.1-0.5,0.1c-0.2,0-0.5,0-0.7-0.1c-0.2-0.1-0.4-0.2-0.6-0.3s-0.3-0.3-0.4-0.5c-0.1-0.2-0.2-0.4-0.3-0.6h-0.6l0.2-0.5
	h0.3c0-0.1,0-0.2,0-0.3v0h-0.4l0.2-0.5h0.3c0.1-0.2,0.1-0.4,0.2-0.6c0.1-0.2,0.3-0.4,0.4-0.5c0.2-0.2,0.4-0.3,0.6-0.4
	c0.2-0.1,0.5-0.1,0.8-0.1c0.4,0,0.7,0.1,1,0.3c0.3,0.2,0.5,0.4,0.6,0.7l-0.6,0.4c-0.1-0.1-0.1-0.2-0.2-0.3c-0.1-0.1-0.2-0.2-0.3-0.2
	c-0.1-0.1-0.2-0.1-0.3-0.1c-0.1,0-0.2,0-0.3,0c-0.2,0-0.3,0-0.4,0.1c-0.1,0.1-0.2,0.1-0.3,0.2c-0.1,0.1-0.2,0.2-0.3,0.3
	c-0.1,0.1-0.1,0.2-0.2,0.4h1.6L27.9,27h-1.5V27c0,0.1,0,0.2,0,0.2h1.4l-0.2,0.5h-1.1c0.1,0.2,0.3,0.4,0.4,0.6
	c0.2,0.1,0.4,0.2,0.7,0.2c0.1,0,0.2,0,0.3,0c0.1,0,0.2-0.1,0.3-0.1c0.1-0.1,0.2-0.1,0.3-0.2c0.1-0.1,0.1-0.2,0.2-0.3l0.7,0.4
	C29.4,28.4,29.3,28.5,29.2,28.7z"/>
</svg>
