<?xml version="1.0" encoding="utf-8"?>
<svg version="1.1" id="Layer_5_copy_2" xmlns="http://www.w3.org/2000/svg" xmlns:xlink="http://www.w3.org/1999/xlink" x="0px"
	 y="0px" viewBox="0 0 500 500" width="44" height="44" style="enable-background:new 0 0 500 500;" xml:space="preserve" preserveAspectRatio="xMidYMid meet">
<style type="text/css">
	.st0{fill:#FFFFFF;}
</style>
<g>
	<path class="st0" d="M250,100l-125,25v125c0,0,0,150,125,150s125-150,125-150V125L250,100z M301.2,259L301.2,259L250,310.2
		L198.8,259l0,0c-7.8-7.3-12.7-17.7-12.7-29.2c0-22.1,17.9-40,40-40c8.9,0,17.2,2.9,23.9,7.9c6.7-5,14.9-7.9,23.9-7.9
		c22.1,0,40,17.9,40,40C313.9,241.3,309,251.7,301.2,259z"/>
</g>
</svg>
