<?xml version="1.0" encoding="utf-8"?>
<svg version="1.1" id="Layer_5_copy_2" xmlns="http://www.w3.org/2000/svg" xmlns:xlink="http://www.w3.org/1999/xlink" x="0px"
	 y="0px" viewBox="0 0 44 44" width="44" height="44" style="enable-background:new 0 0 44 44;" xml:space="preserve" preserveAspectRatio="xMidYMid meet">
<style type="text/css">
	.st0{fill:#FFFFFF;}
</style>
<path class="st0" d="M22,8.8L11,11v11c0,0,0,13.2,11,13.2S33,22,33,22V11L22,8.8z M18.7,14.4c1,0,1.7,0.8,1.7,1.7
	c0,1-0.8,1.7-1.7,1.7S17,17.1,17,16.1C17,15.2,17.7,14.4,18.7,14.4z M21.3,19c-0.7,0.2-1.3,0.8-1.3,1.6c0,0.7,0.4,1.2,0.9,1.5
	c0,0,0,0.2-0.2,0.2h-0.3c-0.2,0-0.4,0.2-0.4,0.4l-0.4,2.5c0,0.2,0.1,0.4,0.3,0.4h0c0.2,0,0.4,0.2,0.4,0.4v1.8h-2.5l-0.4-3.9
	c0-0.2-0.2-0.4-0.4-0.4h-0.2c-0.2,0-0.4-0.2-0.4-0.4L16,18.6c0-0.3,0.1-0.5,0.3-0.5l0.9-0.2c0.2,0,0.5,0,0.6,0.2l0.5,0.6
	c0.1,0.1,0.4,0.2,0.5,0l0.6-0.6c0.1-0.2,0.4-0.2,0.6-0.2l0.9,0.2c0.2,0,0.4,0.2,0.3,0.4L21.3,19z M24.8,14.4c1,0,1.7,0.8,1.7,1.7
	c0,1-0.8,1.7-1.7,1.7c-1,0-1.7-0.8-1.7-1.7C23,15.2,23.8,14.4,24.8,14.4z M27.7,23.9l-1,0.2c-0.2,0.1-0.3,0.2-0.3,0.3l-0.5,3.2
	l-2.7,0v-1.8c0-0.2,0.2-0.4,0.4-0.4h0c0.2,0,0.4-0.2,0.3-0.4l-0.4-2.5c0-0.2-0.2-0.4-0.4-0.4h-0.3c-0.1,0-0.2,0-0.3-0.2
	c0.6-0.3,0.9-0.8,0.9-1.5c0-0.7-0.4-1.2-1-1.5l0.1-0.8c0-0.2,0.2-0.3,0.4-0.4l0.3,0c0.3,0,0.5,0.1,0.7,0.3l0.5,0.5
	c0.2,0.2,0.4,0.2,0.5,0l0.5-0.5c0.2-0.1,0.4-0.3,0.7-0.3l0.3,0c0.2,0,0.4,0.2,0.4,0.4l1,5C28,23.6,28,23.8,27.7,23.9z"/>
</svg>
