<svg version="1.1" id="Layer_1" xmlns="http://www.w3.org/2000/svg" xmlns:xlink="http://www.w3.org/1999/xlink" x="0px" y="0px" viewBox="19.991 85.93 215.833 85.035" preserveAspectRatio="xMidYMid meet" enable-background="new 19.991 85.93 215.833 85.035" xml:space="preserve"><g><path fill="#575756" d="M122.431,101.545c-2.586,0-4.476,0.895-5.669,2.486v-1.393c0-0.398-0.298-0.696-0.696-0.696h-1.393 c-0.398,0-0.696,0.298-0.696,0.696V128.1c0,0.397,0.298,0.696,0.696,0.696h1.393c0.397,0,0.696-0.299,0.696-0.696v-8.255 c1.194,1.69,3.083,2.486,5.669,2.486c3.481,0,5.768-1.591,6.862-4.874c0.497-1.591,0.696-3.282,0.696-5.569 s-0.199-3.979-0.696-5.57C128.298,103.136,126.011,101.545,122.431,101.545z M126.707,116.463 c-0.696,2.188-2.288,3.282-4.674,3.282c-2.387,0-4.078-1.094-4.674-3.282c-0.398-0.994-0.498-2.387-0.498-4.476 c0-2.088,0.199-3.48,0.498-4.475c0.696-2.089,2.287-3.183,4.674-3.183c2.387,0,3.978,1.094,4.674,3.282 c0.398,1.094,0.498,2.486,0.498,4.476C127.205,113.977,127.105,115.369,126.707,116.463z"></path><path fill="#575756" d="M141.725,101.545c-3.68,0-6.465,1.89-7.559,5.271c-0.497,1.492-0.695,2.983-0.695,5.171 c0,2.188,0.198,3.68,0.695,5.172l0,0c1.094,3.382,3.879,5.271,7.559,5.271s6.465-1.89,7.559-5.271 c0.498-1.492,0.697-2.983,0.697-5.172c0-2.188-0.199-3.58-0.697-5.171C148.189,103.435,145.504,101.545,141.725,101.545z M146.697,116.264c-0.695,2.188-2.486,3.481-4.873,3.481s-4.177-1.293-4.873-3.481c-0.398-1.094-0.498-2.288-0.498-4.276 c0-1.989,0.1-3.183,0.498-4.277c0.696-2.188,2.486-3.481,4.873-3.481s4.178,1.193,4.873,3.481c0.398,1.094,0.498,2.288,0.498,4.277 C147.195,113.877,147.096,115.17,146.697,116.264z"></path><path fill="#575756" d="M168.578,115.966c0-3.183-1.989-5.172-5.868-5.47l-1.989-0.199c-3.48-0.298-4.276-1.492-4.276-2.984 c0-2.088,1.492-3.183,4.276-3.183c1.989,0,3.979,0.796,5.271,1.492c0.299,0.199,0.796,0.099,0.895-0.199l0.697-0.995 c0.198-0.298,0.198-0.696-0.199-0.994c-1.89-1.194-4.277-1.89-6.664-1.89c-4.475,0-7.16,2.188-7.16,5.967 c0,3.083,2.088,5.072,5.867,5.47l1.99,0.199c3.48,0.398,4.176,1.392,4.176,3.183c0,2.188-1.789,3.481-4.773,3.481 c-2.785,0-4.873-1.193-6.166-2.188c-0.299-0.199-0.696-0.199-0.994,0l-0.896,0.995c-0.298,0.298-0.298,0.696,0,0.994l0,0 c1.293,1.094,3.879,2.785,7.757,2.785C165.594,122.331,168.578,119.944,168.578,115.966z"></path><path fill="#575756" d="M159.428,98.76c0.199,0.298,0.498,0.498,0.896,0.498h0.896c0.397,0,0.596-0.199,0.795-0.498l3.68-4.973 c0.199-0.199,0.199-0.398,0.1-0.597c-0.1-0.199-0.298-0.298-0.497-0.298h-0.995c-0.496,0-0.596,0.199-0.895,0.497l-2.686,3.282 l-2.686-3.282c-0.298-0.398-0.496-0.497-0.895-0.497h-0.994c-0.199,0-0.398,0.099-0.498,0.298c-0.1,0.199,0,0.398,0.1,0.597 L159.428,98.76z"></path><path fill="#575756" d="M179.22,122.033h1.095c0.397,0,0.695-0.298,0.695-0.696v-1.293c0-0.398-0.298-0.696-0.695-0.696h-0.797 c-1.988,0-2.883-0.397-2.883-2.983v-11.935h3.68c0.397,0,0.695-0.298,0.695-0.696v-1.094c0-0.398-0.298-0.696-0.695-0.696h-3.68 v-5.569c0-0.398-0.299-0.696-0.697-0.696h-1.393c-0.397,0-0.695,0.298-0.695,0.696v5.569h-1.989c-0.397,0-0.696,0.298-0.696,0.696 v1.094c0,0.397,0.299,0.696,0.696,0.696h1.989v12.034C173.85,120.541,175.342,122.033,179.22,122.033z"></path><path fill="#575756" d="M198.912,117.06c0.498-1.492,0.696-2.983,0.696-5.171s-0.198-3.581-0.696-5.172 c-1.094-3.381-3.879-5.271-7.559-5.271s-6.465,1.89-7.559,5.271c-0.498,1.492-0.696,2.984-0.696,5.172s0.198,3.68,0.696,5.171l0,0 c1.094,3.382,3.879,5.271,7.559,5.271S197.818,120.441,198.912,117.06z M196.227,116.264c-0.695,2.188-2.486,3.481-4.873,3.481 s-4.178-1.293-4.873-3.481c-0.398-1.094-0.498-2.288-0.498-4.276c0-1.989,0.1-3.183,0.498-4.277 c0.695-2.188,2.486-3.481,4.873-3.481s4.178,1.193,4.873,3.481c0.398,1.094,0.498,2.288,0.498,4.277 C196.725,113.877,196.625,115.17,196.227,116.264z"></path><path fill="#575756" d="M217.809,101.942h-1.492c-0.496,0-0.695,0.298-0.795,0.597l-5.471,14.918l-5.668-14.918 c-0.1-0.298-0.299-0.597-0.797-0.597h-1.491c-0.298,0-0.497,0.1-0.497,0.199c-0.1,0.099-0.1,0.298-0.1,0.597l7.062,18.598 c0,0.1,0.198,0.597,0.796,0.597h1.293c0.397,0,0.596-0.199,0.795-0.597l7.062-18.598c0.1-0.199,0-0.398-0.099-0.498 C218.207,102.042,218.008,101.942,217.809,101.942z"></path><path fill="#575756" d="M227.854,99.158h0.995c0.397,0,0.696-0.199,0.995-0.497l3.58-4.973c0.1-0.199,0.199-0.397,0.1-0.597 c-0.1-0.199-0.299-0.298-0.498-0.298h-1.591c-0.397,0-0.696,0.199-0.896,0.498l-3.183,4.973c-0.099,0.298-0.099,0.497,0,0.597 C227.456,99.058,227.654,99.158,227.854,99.158z"></path><path fill="#575756" d="M228.551,101.545c-2.686,0-4.874,0.696-6.365,1.89c-0.299,0.199-0.398,0.597-0.199,0.895l0.695,0.995 c0.299,0.298,0.697,0.397,0.995,0.099l0,0c1.193-0.995,2.586-1.392,4.675-1.392c4.077,0,4.773,1.392,4.773,4.177v1.989h-4.873 c-4.973,0-7.658,2.089-7.658,6.067c0,3.779,2.586,6.067,6.763,6.067c2.586,0,4.675-0.796,5.769-2.188v1.094 c0,0.398,0.299,0.696,0.696,0.696h1.293c0.397,0,0.696-0.298,0.696-0.696v-13.029C236.01,103.435,233.921,101.545,228.551,101.545z M233.225,115.667c0,2.486-2.089,4.078-5.271,4.078c-2.088,0-4.574-0.597-4.574-3.481c0-2.486,1.591-3.581,5.271-3.581h4.575 V115.667z"></path><path fill="#575756" d="M122.431,139.836c-2.586,0-4.476,0.895-5.669,2.486v-9.15c0-0.398-0.298-0.696-0.696-0.696h-1.393 c-0.398,0-0.696,0.298-0.696,0.696v26.355c0,0.398,0.298,0.696,0.696,0.696h1.393c0.397,0,0.696-0.298,0.696-0.696v-1.393 c1.194,1.691,3.083,2.486,5.669,2.486c3.481,0,5.768-1.591,6.862-4.873c0.497-1.592,0.696-3.281,0.696-5.569 s-0.199-3.978-0.696-5.569C128.298,141.427,126.011,139.836,122.431,139.836z M126.707,154.754 c-0.696,2.188-2.288,3.281-4.674,3.281c-2.387,0-4.078-1.094-4.674-3.281c-0.398-0.994-0.498-2.387-0.498-4.476 s0.199-3.481,0.498-4.476c0.696-2.089,2.287-3.183,4.674-3.183c2.387,0,3.978,1.094,4.674,3.282 c0.398,1.094,0.498,2.486,0.498,4.475C127.205,152.168,127.105,153.66,126.707,154.754z"></path><path fill="#575756" d="M141.427,139.836c-2.686,0-4.874,0.695-6.365,1.889c-0.298,0.199-0.397,0.598-0.199,0.896l0.696,0.995 c0.299,0.298,0.696,0.397,0.994,0.099l0,0c1.193-0.994,2.586-1.392,4.675-1.392c4.077,0,4.774,1.392,4.774,4.177v1.989h-4.873 c-4.974,0-7.658,2.088-7.658,6.066c0,3.779,2.586,6.066,6.762,6.066c2.586,0,4.676-0.795,5.77-2.188v1.094 c0,0.398,0.298,0.696,0.695,0.696h1.293c0.398,0,0.697-0.298,0.697-0.696v-13.028C148.786,141.725,146.697,139.836,141.427,139.836 z M146.102,153.958c0,2.486-2.09,4.077-5.271,4.077c-2.089,0-4.575-0.596-4.575-3.48c0-2.486,1.591-3.58,5.271-3.58h4.576V153.958z "></path><path fill="#575756" d="M162.312,139.836c-2.387,0-4.376,0.895-5.471,2.486v-1.393c0-0.398-0.298-0.697-0.695-0.697h-1.393 c-0.398,0-0.696,0.299-0.696,0.697v18.598c0,0.398,0.298,0.696,0.696,0.696h1.393c0.397,0,0.695-0.298,0.695-0.696v-11.935 c0-3.083,1.99-5.172,5.072-5.172c3.283,0,4.774,1.79,4.774,5.569v11.537c0,0.398,0.298,0.696,0.696,0.696h1.393 c0.397,0,0.695-0.298,0.695-0.696v-12.034C169.373,142.62,166.788,139.836,162.312,139.836z"></path><path fill="#575756" d="M182.999,147.692l5.569-6.663c0.199-0.199,0.199-0.398,0.1-0.598s-0.298-0.298-0.497-0.298h-1.69 c-0.498,0-0.696,0.198-0.896,0.497l-8.354,9.846v-17.305c0-0.398-0.298-0.696-0.695-0.696h-1.393c-0.398,0-0.696,0.298-0.696,0.696 v26.355c0,0.398,0.298,0.696,0.696,0.696h1.393c0.397,0,0.695-0.298,0.695-0.696v-5.072l3.879-4.475l5.968,9.746 c0.198,0.398,0.397,0.497,0.896,0.497h1.689c0.199,0,0.398-0.099,0.498-0.298s0.1-0.398,0-0.598L182.999,147.692z"></path><path fill="#575756" d="M200.504,139.836c-2.686,0-4.873,0.695-6.365,1.889c-0.299,0.199-0.398,0.598-0.199,0.896l0.696,0.995 c0.298,0.298,0.696,0.397,0.995,0.099l0,0c1.193-0.994,2.585-1.392,4.674-1.392c4.078,0,4.773,1.392,4.773,4.177v1.989h-4.873 c-4.973,0-7.658,2.088-7.658,6.066c0,3.779,2.586,6.066,6.764,6.066c2.586,0,4.674-0.795,5.768-2.188v1.094 c0,0.398,0.299,0.696,0.697,0.696h1.292c0.397,0,0.696-0.298,0.696-0.696v-13.028C207.863,141.725,205.874,139.836,200.504,139.836 z M205.178,153.958c0,2.486-2.088,4.077-5.271,4.077c-2.088,0-4.574-0.596-4.574-3.48c0-2.486,1.591-3.58,5.271-3.58h4.574V153.958 z"></path></g><linearGradient id="SVGID_1_" gradientUnits="userSpaceOnUse" x1="211.4648" y1="-45.2568" x2="271.2959" y2="-105.088" gradientTransform="matrix(0.9946 0 0 -0.9946 -177.9978 53.2455)"><stop offset="0" stop-color="#FFB30C"></stop><stop offset="0.24" stop-color="#FF8E0F"></stop><stop offset="1" stop-color="#FF2021"></stop></linearGradient><path fill="url(#SVGID_1_)" d="M30.135,128c0-17.604,14.322-31.925,31.925-31.925c17.604,0,31.925,14.322,31.925,31.925 s-14.321,31.926-31.925,31.926C44.457,159.926,30.135,145.604,30.135,128 M19.991,128c0,23.272,18.797,42.07,42.07,42.07 c23.273,0,42.07-18.798,42.07-42.07c0-23.273-18.797-42.07-42.07-42.07C38.887,85.93,19.991,104.727,19.991,128"></path></svg>
